<svg id="w3c_1_" data-name="w3c (1)" xmlns="http://www.w3.org/2000/svg" width="80.625" height="80.625" viewBox="0 0 80.625 80.625">
  <path id="Path_26" data-name="Path 26" d="M24.52,176.879A1.217,1.217,0,0,0,23.3,178.1v23.458a1.217,1.217,0,0,0,2.434,0V178.1a1.217,1.217,0,0,0-1.217-1.217Z" transform="translate(-19.633 -149.026)" fill="#dedde0"/>
  <path id="Path_27" data-name="Path 27" d="M9.773,322.091h2.443V302.546H9.773a9.773,9.773,0,1,0,0,19.545Z" transform="translate(0 -254.904)" fill="#724aa1"/>
  <path id="Path_28" data-name="Path 28" d="M405.838,322.091H403.4V302.546h2.443a9.773,9.773,0,1,1,0,19.545Z" transform="translate(-339.872 -254.904)" fill="#724aa1"/>
  <path id="Path_29" data-name="Path 29" d="M107.629,201.209a23.211,23.211,0,0,1-23.21,23.21H69.759a23.21,23.21,0,0,1-23.209-23.21,30.54,30.54,0,0,1,61.079,0Z" transform="translate(-39.22 -143.794)" fill="#9778af"/>
  <path id="Path_30" data-name="Path 30" d="M95.106,176.55H92.757a2.435,2.435,0,0,0-1.721.712l-6.126,6.128a2.434,2.434,0,0,1-4.155-1.721v-2.685a2.434,2.434,0,0,0-2.434-2.434H75.83a9.7,9.7,0,0,1-5.659-1.814,2.425,2.425,0,0,0-3.68,1.2c-4,11.28-6.235,30.822,13.319,48.488H69.759A23.21,23.21,0,0,1,46.55,201.209,30.54,30.54,0,0,1,95.106,176.55Z" transform="translate(-39.22 -143.794)" fill="#8259a5"/>
  <path id="Path_31" data-name="Path 31" d="M139.51,286.175a14.658,14.658,0,0,1-14.659,14.659h-17.1a14.659,14.659,0,1,1,0-29.317h17.1A14.658,14.658,0,0,1,139.51,286.175Z" transform="translate(-78.43 -228.761)" fill="#f4f4f5"/>
  <path id="Path_32" data-name="Path 32" d="M111.249,304.714h-3.5a14.661,14.661,0,0,1-4.567-28.592,41.061,41.061,0,0,0,8.067,28.592Z" transform="translate(-78.43 -232.641)" fill="#dedde0"/>
  <path id="Path_33" data-name="Path 33" d="M237.491,8.459v12.4a8.46,8.46,0,0,1-8.459,8.459H210.4a2.436,2.436,0,0,0-1.721.712l-5.761,5.76a1.216,1.216,0,0,1-2.077-.86V31.752a2.434,2.434,0,0,0-2.434-2.434h-2.552a9.674,9.674,0,0,1-9.673-9.675V8.459A8.458,8.458,0,0,1,194.643,0h34.389A8.459,8.459,0,0,1,237.491,8.459Z" transform="translate(-156.866 0)" fill="#b4e9f1"/>
  <path id="Path_34" data-name="Path 34" d="M212.589,29.319H210.4a2.436,2.436,0,0,0-1.721.712l-5.761,5.76a1.216,1.216,0,0,1-2.077-.86V31.753a2.434,2.434,0,0,0-2.434-2.434h-2.552a9.674,9.674,0,0,1-9.673-9.675V8.459A8.458,8.458,0,0,1,194.643,0h11.508c-2.292,4.3-4.833,19.818,6.438,29.319Z" transform="translate(-156.866)" fill="#81d8e7"/>
  <circle id="Ellipse_6" data-name="Ellipse 6" cx="3.665" cy="3.665" r="3.665" transform="translate(1.222 26.875)" fill="#5972a5"/>
  <circle id="Ellipse_7" data-name="Ellipse 7" cx="3.665" cy="3.665" r="3.665" transform="translate(51.307 10.994)" fill="#7888af"/>
  <circle id="Ellipse_8" data-name="Ellipse 8" cx="3.665" cy="3.665" r="3.665" transform="translate(65.966 10.994)" fill="#7888af"/>
  <circle id="Ellipse_9" data-name="Ellipse 9" cx="3.665" cy="3.665" r="3.665" transform="translate(36.648 10.994)" fill="#5972a5"/>
  <path id="Path_35" data-name="Path 35" d="M133.606,353.761c0,2.18-2.217,3.949-4.955,3.95s-4.958-1.765-4.959-3.945,2.217-3.949,4.955-3.95,4.958,1.765,4.959,3.945Z" transform="translate(-104.214 -294.73)" fill="#ffa1ac"/>
  <path id="Path_36" data-name="Path 36" d="M294.32,353.68c0,2.18,2.221,3.946,4.959,3.945s4.956-1.77,4.955-3.95-2.221-3.947-4.959-3.945S294.319,351.5,294.32,353.68Z" transform="translate(-247.973 -294.658)" fill="#ffa1ac"/>
  <g id="Group_69" data-name="Group 69" transform="translate(23.745 51.149)">
    <path id="Path_37" data-name="Path 37" d="M219.34,345.93c0-3-2.177-3.284-4.861-3.283s-4.859.285-4.857,3.288a4.89,4.89,0,1,0,9.718,0Z" transform="translate(-200.358 -339.839)" fill="#495560"/>
    <path id="Path_38" data-name="Path 38" d="M152.01,329.679a1.217,1.217,0,0,1-1.217-1.216,3.576,3.576,0,1,1,7.152,0,1.217,1.217,0,0,1-2.434,0,1.143,1.143,0,1,0-2.285,0A1.217,1.217,0,0,1,152.01,329.679Z" transform="translate(-150.793 -324.874)" fill="#495560"/>
    <path id="Path_39" data-name="Path 39" d="M285.945,329.612a1.217,1.217,0,0,1-1.217-1.216,3.576,3.576,0,1,1,7.153,0,1.217,1.217,0,1,1-2.434,0,1.143,1.143,0,0,0-2.285,0A1.217,1.217,0,0,1,285.945,329.612Z" transform="translate(-263.637 -324.818)" fill="#495560"/>
  </g>
</svg>
